<mxfile host="app.diagrams.net" modified="2020-06-08T18:52:36.382Z" agent="5.0 (Macintosh; Intel Mac OS X 10_15_5) AppleWebKit/537.36 (KHTML, like Gecko) Chrome/83.0.4103.97 Safari/537.36" etag="7R85kM6EsLjmNkr-zCzR" version="13.1.14" type="github">
  <diagram id="MnWhXvnow7zXSZyKi_42" name="Page-1">
    <mxGraphModel dx="622" dy="502" grid="1" gridSize="10" guides="1" tooltips="1" connect="1" arrows="1" fold="1" page="1" pageScale="1" pageWidth="850" pageHeight="1100" math="0" shadow="0">
      <root>
        <mxCell id="0" />
        <mxCell id="1" parent="0" />
        <mxCell id="iNxaWUcbnLE6CEfqLUtP-1" value="w&lt;sub&gt;i1&lt;/sub&gt;" style="ellipse;whiteSpace=wrap;html=1;" parent="1" vertex="1">
          <mxGeometry x="160" y="80" width="40" height="40" as="geometry" />
        </mxCell>
        <mxCell id="iNxaWUcbnLE6CEfqLUtP-17" style="edgeStyle=orthogonalEdgeStyle;rounded=0;orthogonalLoop=1;jettySize=auto;html=1;entryX=-0.008;entryY=0.617;entryDx=0;entryDy=0;entryPerimeter=0;" parent="1" source="iNxaWUcbnLE6CEfqLUtP-3" target="iNxaWUcbnLE6CEfqLUtP-14" edge="1">
          <mxGeometry relative="1" as="geometry" />
        </mxCell>
        <mxCell id="iNxaWUcbnLE6CEfqLUtP-3" value="w&lt;sub&gt;i3&lt;/sub&gt;" style="ellipse;whiteSpace=wrap;html=1;" parent="1" vertex="1">
          <mxGeometry x="160" y="240" width="40" height="40" as="geometry" />
        </mxCell>
        <mxCell id="iNxaWUcbnLE6CEfqLUtP-16" style="edgeStyle=orthogonalEdgeStyle;rounded=0;orthogonalLoop=1;jettySize=auto;html=1;entryX=0;entryY=0.4;entryDx=0;entryDy=0;entryPerimeter=0;" parent="1" source="iNxaWUcbnLE6CEfqLUtP-4" target="iNxaWUcbnLE6CEfqLUtP-14" edge="1">
          <mxGeometry relative="1" as="geometry" />
        </mxCell>
        <mxCell id="iNxaWUcbnLE6CEfqLUtP-4" value="w&lt;sub&gt;i2&lt;/sub&gt;" style="ellipse;whiteSpace=wrap;html=1;" parent="1" vertex="1">
          <mxGeometry x="160" y="160" width="40" height="40" as="geometry" />
        </mxCell>
        <mxCell id="iNxaWUcbnLE6CEfqLUtP-5" value="w&lt;sub&gt;in&lt;/sub&gt;" style="ellipse;whiteSpace=wrap;html=1;" parent="1" vertex="1">
          <mxGeometry x="160" y="320" width="40" height="40" as="geometry" />
        </mxCell>
        <mxCell id="iNxaWUcbnLE6CEfqLUtP-6" value="" style="ellipse;whiteSpace=wrap;html=1;" parent="1" vertex="1">
          <mxGeometry x="90" y="95" width="10" height="10" as="geometry" />
        </mxCell>
        <mxCell id="iNxaWUcbnLE6CEfqLUtP-7" value="" style="ellipse;whiteSpace=wrap;html=1;" parent="1" vertex="1">
          <mxGeometry x="90" y="175" width="10" height="10" as="geometry" />
        </mxCell>
        <mxCell id="iNxaWUcbnLE6CEfqLUtP-8" value="" style="ellipse;whiteSpace=wrap;html=1;" parent="1" vertex="1">
          <mxGeometry x="90" y="255" width="10" height="10" as="geometry" />
        </mxCell>
        <mxCell id="iNxaWUcbnLE6CEfqLUtP-9" value="" style="ellipse;whiteSpace=wrap;html=1;" parent="1" vertex="1">
          <mxGeometry x="90" y="335" width="10" height="10" as="geometry" />
        </mxCell>
        <mxCell id="iNxaWUcbnLE6CEfqLUtP-10" value="" style="endArrow=classic;html=1;entryX=0;entryY=0.5;entryDx=0;entryDy=0;exitX=1;exitY=0.5;exitDx=0;exitDy=0;" parent="1" source="iNxaWUcbnLE6CEfqLUtP-6" target="iNxaWUcbnLE6CEfqLUtP-1" edge="1">
          <mxGeometry width="50" height="50" relative="1" as="geometry">
            <mxPoint x="300" y="290" as="sourcePoint" />
            <mxPoint x="350" y="240" as="targetPoint" />
          </mxGeometry>
        </mxCell>
        <mxCell id="iNxaWUcbnLE6CEfqLUtP-11" value="" style="endArrow=classic;html=1;exitX=1;exitY=0.5;exitDx=0;exitDy=0;entryX=0;entryY=0.5;entryDx=0;entryDy=0;" parent="1" source="iNxaWUcbnLE6CEfqLUtP-7" target="iNxaWUcbnLE6CEfqLUtP-4" edge="1">
          <mxGeometry width="50" height="50" relative="1" as="geometry">
            <mxPoint x="300" y="290" as="sourcePoint" />
            <mxPoint x="350" y="240" as="targetPoint" />
          </mxGeometry>
        </mxCell>
        <mxCell id="iNxaWUcbnLE6CEfqLUtP-12" value="" style="endArrow=classic;html=1;exitX=1;exitY=0.5;exitDx=0;exitDy=0;entryX=0;entryY=0.5;entryDx=0;entryDy=0;" parent="1" source="iNxaWUcbnLE6CEfqLUtP-8" target="iNxaWUcbnLE6CEfqLUtP-3" edge="1">
          <mxGeometry width="50" height="50" relative="1" as="geometry">
            <mxPoint x="300" y="290" as="sourcePoint" />
            <mxPoint x="350" y="240" as="targetPoint" />
          </mxGeometry>
        </mxCell>
        <mxCell id="iNxaWUcbnLE6CEfqLUtP-13" value="" style="endArrow=classic;html=1;exitX=1;exitY=0.5;exitDx=0;exitDy=0;entryX=0;entryY=0.5;entryDx=0;entryDy=0;" parent="1" source="iNxaWUcbnLE6CEfqLUtP-9" target="iNxaWUcbnLE6CEfqLUtP-5" edge="1">
          <mxGeometry width="50" height="50" relative="1" as="geometry">
            <mxPoint x="300" y="290" as="sourcePoint" />
            <mxPoint x="350" y="240" as="targetPoint" />
          </mxGeometry>
        </mxCell>
        <mxCell id="iNxaWUcbnLE6CEfqLUtP-39" value="" style="edgeStyle=orthogonalEdgeStyle;rounded=0;orthogonalLoop=1;jettySize=auto;html=1;" parent="1" source="iNxaWUcbnLE6CEfqLUtP-14" target="iNxaWUcbnLE6CEfqLUtP-38" edge="1">
          <mxGeometry relative="1" as="geometry" />
        </mxCell>
        <mxCell id="iNxaWUcbnLE6CEfqLUtP-14" value="" style="ellipse;whiteSpace=wrap;html=1;" parent="1" vertex="1">
          <mxGeometry x="270" y="160" width="130" height="120" as="geometry" />
        </mxCell>
        <mxCell id="iNxaWUcbnLE6CEfqLUtP-15" value="" style="endArrow=classic;html=1;entryX=0;entryY=0;entryDx=0;entryDy=0;exitX=1;exitY=0.5;exitDx=0;exitDy=0;" parent="1" source="iNxaWUcbnLE6CEfqLUtP-1" target="iNxaWUcbnLE6CEfqLUtP-14" edge="1">
          <mxGeometry width="50" height="50" relative="1" as="geometry">
            <mxPoint x="300" y="290" as="sourcePoint" />
            <mxPoint x="350" y="240" as="targetPoint" />
          </mxGeometry>
        </mxCell>
        <mxCell id="iNxaWUcbnLE6CEfqLUtP-19" value="" style="endArrow=classic;html=1;exitX=1;exitY=0.5;exitDx=0;exitDy=0;" parent="1" source="iNxaWUcbnLE6CEfqLUtP-5" target="iNxaWUcbnLE6CEfqLUtP-14" edge="1">
          <mxGeometry width="50" height="50" relative="1" as="geometry">
            <mxPoint x="300" y="290" as="sourcePoint" />
            <mxPoint x="350" y="240" as="targetPoint" />
          </mxGeometry>
        </mxCell>
        <mxCell id="iNxaWUcbnLE6CEfqLUtP-22" value="Input" style="text;html=1;align=center;verticalAlign=middle;resizable=0;points=[];autosize=1;" parent="1" vertex="1">
          <mxGeometry x="75" y="50" width="40" height="20" as="geometry" />
        </mxCell>
        <mxCell id="iNxaWUcbnLE6CEfqLUtP-23" value="x&lt;sub&gt;j&lt;/sub&gt; * w&lt;sub&gt;ij&lt;/sub&gt;" style="text;html=1;strokeColor=none;fillColor=none;align=center;verticalAlign=middle;whiteSpace=wrap;rounded=0;" parent="1" vertex="1">
          <mxGeometry x="332" y="205" width="50" height="30" as="geometry" />
        </mxCell>
        <mxCell id="iNxaWUcbnLE6CEfqLUtP-24" value="Weights" style="text;html=1;strokeColor=none;fillColor=none;align=center;verticalAlign=middle;whiteSpace=wrap;rounded=0;" parent="1" vertex="1">
          <mxGeometry x="160" y="50" width="40" height="20" as="geometry" />
        </mxCell>
        <mxCell id="iNxaWUcbnLE6CEfqLUtP-30" value="" style="shape=image;html=1;verticalAlign=top;verticalLabelPosition=bottom;labelBackgroundColor=#ffffff;imageAspect=0;aspect=fixed;image=https://cdn2.iconfinder.com/data/icons/gnomeicontheme/24x24/stock/data/stock_sum.png" parent="1" vertex="1">
          <mxGeometry x="300" y="204" width="32" height="32" as="geometry" />
        </mxCell>
        <mxCell id="iNxaWUcbnLE6CEfqLUtP-31" value="n" style="text;html=1;strokeColor=none;fillColor=none;align=center;verticalAlign=middle;whiteSpace=wrap;rounded=0;" parent="1" vertex="1">
          <mxGeometry x="296" y="184" width="40" height="20" as="geometry" />
        </mxCell>
        <mxCell id="iNxaWUcbnLE6CEfqLUtP-32" value="j=1" style="text;html=1;strokeColor=none;fillColor=none;align=center;verticalAlign=middle;whiteSpace=wrap;rounded=0;" parent="1" vertex="1">
          <mxGeometry x="296" y="229" width="40" height="20" as="geometry" />
        </mxCell>
        <mxCell id="iNxaWUcbnLE6CEfqLUtP-34" style="edgeStyle=orthogonalEdgeStyle;rounded=0;orthogonalLoop=1;jettySize=auto;html=1;exitX=0.5;exitY=1;exitDx=0;exitDy=0;" parent="1" edge="1">
          <mxGeometry relative="1" as="geometry">
            <mxPoint x="353" y="224" as="sourcePoint" />
            <mxPoint x="353" y="224" as="targetPoint" />
          </mxGeometry>
        </mxCell>
        <mxCell id="iNxaWUcbnLE6CEfqLUtP-41" style="edgeStyle=orthogonalEdgeStyle;rounded=0;orthogonalLoop=1;jettySize=auto;html=1;" parent="1" source="iNxaWUcbnLE6CEfqLUtP-38" edge="1">
          <mxGeometry relative="1" as="geometry">
            <mxPoint x="600" y="220" as="targetPoint" />
          </mxGeometry>
        </mxCell>
        <mxCell id="iNxaWUcbnLE6CEfqLUtP-38" value="Activation Function" style="rounded=1;whiteSpace=wrap;html=1;" parent="1" vertex="1">
          <mxGeometry x="480" y="205" width="80" height="30" as="geometry" />
        </mxCell>
        <mxCell id="iNxaWUcbnLE6CEfqLUtP-40" value="Sum" style="text;html=1;strokeColor=none;fillColor=none;align=center;verticalAlign=middle;whiteSpace=wrap;rounded=0;" parent="1" vertex="1">
          <mxGeometry x="420" y="189" width="40" height="20" as="geometry" />
        </mxCell>
        <mxCell id="iNxaWUcbnLE6CEfqLUtP-42" value="Output" style="text;html=1;align=center;verticalAlign=middle;resizable=0;points=[];autosize=1;" parent="1" vertex="1">
          <mxGeometry x="595" y="209" width="50" height="20" as="geometry" />
        </mxCell>
        <mxCell id="iNxaWUcbnLE6CEfqLUtP-43" value="x&lt;sub&gt;1&lt;/sub&gt;" style="text;html=1;strokeColor=none;fillColor=none;align=center;verticalAlign=middle;whiteSpace=wrap;rounded=0;" parent="1" vertex="1">
          <mxGeometry x="40" y="90" width="40" height="20" as="geometry" />
        </mxCell>
        <mxCell id="iNxaWUcbnLE6CEfqLUtP-44" value="x&lt;sub&gt;2&lt;/sub&gt;" style="text;html=1;strokeColor=none;fillColor=none;align=center;verticalAlign=middle;whiteSpace=wrap;rounded=0;" parent="1" vertex="1">
          <mxGeometry x="40" y="169" width="40" height="20" as="geometry" />
        </mxCell>
        <mxCell id="iNxaWUcbnLE6CEfqLUtP-45" value="x&lt;sub&gt;3&lt;/sub&gt;" style="text;html=1;strokeColor=none;fillColor=none;align=center;verticalAlign=middle;whiteSpace=wrap;rounded=0;" parent="1" vertex="1">
          <mxGeometry x="40" y="249" width="40" height="20" as="geometry" />
        </mxCell>
        <mxCell id="iNxaWUcbnLE6CEfqLUtP-46" value="x&lt;sub&gt;n&lt;/sub&gt;" style="text;html=1;strokeColor=none;fillColor=none;align=center;verticalAlign=middle;whiteSpace=wrap;rounded=0;" parent="1" vertex="1">
          <mxGeometry x="40" y="330" width="40" height="20" as="geometry" />
        </mxCell>
        <mxCell id="iNxaWUcbnLE6CEfqLUtP-47" value="" style="endArrow=none;dashed=1;html=1;exitX=0.5;exitY=0;exitDx=0;exitDy=0;" parent="1" source="iNxaWUcbnLE6CEfqLUtP-46" edge="1">
          <mxGeometry width="50" height="50" relative="1" as="geometry">
            <mxPoint x="50" y="330" as="sourcePoint" />
            <mxPoint x="60" y="280" as="targetPoint" />
            <Array as="points">
              <mxPoint x="60" y="300" />
            </Array>
          </mxGeometry>
        </mxCell>
        <mxCell id="OUARinPxl3u-DBZ7cYVZ-2" value="" style="endArrow=none;dashed=1;html=1;" edge="1" parent="1">
          <mxGeometry width="50" height="50" relative="1" as="geometry">
            <mxPoint x="180" y="310" as="sourcePoint" />
            <mxPoint x="180" y="290" as="targetPoint" />
            <Array as="points">
              <mxPoint x="179.5" y="300" />
            </Array>
          </mxGeometry>
        </mxCell>
      </root>
    </mxGraphModel>
  </diagram>
</mxfile>
